<svg xmlns="http://www.w3.org/2000/svg" viewBox="0 0 800 600" fill="none">
  <defs>
    <linearGradient id="sky" x1="0" y1="0" x2="0" y2="1"><stop offset="0%" stop-color="#f8f4ef"/><stop offset="100%" stop-color="#fef3e2"/></linearGradient>
    <linearGradient id="cb" x1="0" y1="0" x2="0" y2="1"><stop offset="0%" stop-color="#d97706"/><stop offset="100%" stop-color="#b45309"/></linearGradient>
  </defs>
  <rect width="800" height="600" fill="url(#sky)"/>
  <rect x="0" y="420" width="800" height="180" fill="#e5e7eb"/>
  <ellipse cx="400" cy="430" rx="260" ry="20" fill="#000" opacity="0.08"/>
  <rect x="140" y="240" width="520" height="190" rx="8" fill="url(#cb)"/>
  <rect x="135" y="232" width="530" height="16" rx="4" fill="#92400e"/>
  <rect x="200" y="248" width="6" height="174" rx="3" fill="#92400e" opacity="0.4"/>
  <rect x="280" y="248" width="6" height="174" rx="3" fill="#92400e" opacity="0.4"/>
  <rect x="360" y="248" width="6" height="174" rx="3" fill="#92400e" opacity="0.4"/>
  <rect x="440" y="248" width="6" height="174" rx="3" fill="#92400e" opacity="0.4"/>
  <rect x="520" y="248" width="6" height="174" rx="3" fill="#92400e" opacity="0.4"/>
  <rect x="600" y="248" width="6" height="174" rx="3" fill="#92400e" opacity="0.4"/>
  <path d="M140 430 L140 440 L660 440 L660 430" fill="#78350f"/>
  <rect x="170" y="220" width="24" height="20" rx="4" fill="#78350f"/>
  <rect x="606" y="220" width="24" height="20" rx="4" fill="#78350f"/>
  <rect x="310" y="300" width="180" height="60" rx="6" fill="#78350f" opacity="0.5"/>
  <text x="400" y="340" text-anchor="middle" font-family="sans-serif" font-weight="700" font-size="32" fill="#fef3c7">BOSS</text>
</svg>
