<svg xmlns="http://www.w3.org/2000/svg" viewBox="0 0 600 400" fill="none">
  <defs><linearGradient id="sky2" x1="0" y1="0" x2="0" y2="1"><stop offset="0%" stop-color="#ecfdf5"/><stop offset="100%" stop-color="#d1fae5"/></linearGradient></defs>
  <rect width="600" height="400" fill="url(#sky2)"/>
  <rect x="0" y="300" width="600" height="100" fill="#e5e7eb"/>
  <rect x="100" y="150" width="400" height="150" rx="4" fill="#374151"/>
  <rect x="100" y="140" width="400" height="18" rx="2" fill="#1f2937"/>
  <polygon points="100,140 300,80 500,140" fill="#4b5563"/>
  <rect x="160" y="200" width="80" height="100" rx="3" fill="#6b7280"/>
  <rect x="360" y="200" width="80" height="100" rx="3" fill="#6b7280"/>
  <rect x="270" y="170" width="60" height="40" rx="2" fill="#93c5fd" opacity="0.6"/>
  <circle cx="300" cy="260" r="25" fill="#16a34a" opacity="0.2"/>
  <text x="300" y="268" text-anchor="middle" font-family="sans-serif" font-size="24">♻</text>
  <rect x="30" y="270" width="50" height="30" rx="3" fill="#d97706"/>
  <rect x="520" y="275" width="50" height="25" rx="3" fill="#d97706"/>
  <rect x="200" y="100" width="200" height="30" rx="15" fill="#16a34a"/>
  <text x="300" y="120" text-anchor="middle" font-family="sans-serif" font-weight="700" font-size="14" fill="white">95% RECYCLED</text>
</svg>
